<svg version="1.1" xmlns="http://www.w3.org/2000/svg" xmlns:xlink="http://www.w3.org/1999/xlink" width="300" height="300"><defs/><g transform="scale(1,1)"><g id="background-25073c3e"><rect fill="white" stroke="none" x="0" y="0" width="300" height="300" class="dcg-svg-background"/></g><g id="background-images-25073c3e"/><g id="graphpaper-25073c3e"><g id="grid-25073c3e"><g><path fill="none" stroke="rgb(0,0,0)" class="dcg-svg-minor-gridline" paint-order="fill stroke markers" d=" M -0.5 0 L -0.5 300" stroke-opacity="0.12" stroke-miterlimit="10" stroke-dasharray=""/><path fill="none" stroke="rgb(0,0,0)" class="dcg-svg-minor-gridline" paint-order="fill stroke markers" d=" M 29.5 0 L 29.5 300" stroke-opacity="0.12" stroke-miterlimit="10" stroke-dasharray=""/><path fill="none" stroke="rgb(0,0,0)" class="dcg-svg-minor-gridline" paint-order="fill stroke markers" d=" M 59.5 0 L 59.5 300" stroke-opacity="0.12" stroke-miterlimit="10" stroke-dasharray=""/><path fill="none" stroke="rgb(0,0,0)" class="dcg-svg-minor-gridline" paint-order="fill stroke markers" d=" M 89.5 0 L 89.5 300" stroke-opacity="0.12" stroke-miterlimit="10" stroke-dasharray=""/><path fill="none" stroke="rgb(0,0,0)" class="dcg-svg-minor-gridline" paint-order="fill stroke markers" d=" M 119.5 0 L 119.5 300" stroke-opacity="0.12" stroke-miterlimit="10" stroke-dasharray=""/><path fill="none" stroke="rgb(0,0,0)" class="dcg-svg-minor-gridline" paint-order="fill stroke markers" d=" M 179.5 0 L 179.5 300" stroke-opacity="0.12" stroke-miterlimit="10" stroke-dasharray=""/><path fill="none" stroke="rgb(0,0,0)" class="dcg-svg-minor-gridline" paint-order="fill stroke markers" d=" M 209.5 0 L 209.5 300" stroke-opacity="0.12" stroke-miterlimit="10" stroke-dasharray=""/><path fill="none" stroke="rgb(0,0,0)" class="dcg-svg-minor-gridline" paint-order="fill stroke markers" d=" M 239.5 0 L 239.5 300" stroke-opacity="0.12" stroke-miterlimit="10" stroke-dasharray=""/><path fill="none" stroke="rgb(0,0,0)" class="dcg-svg-minor-gridline" paint-order="fill stroke markers" d=" M 269.5 0 L 269.5 300" stroke-opacity="0.12" stroke-miterlimit="10" stroke-dasharray=""/><path fill="none" stroke="rgb(0,0,0)" class="dcg-svg-minor-gridline" paint-order="fill stroke markers" d=" M 0 278.5 L 300 278.5" stroke-opacity="0.12" stroke-miterlimit="10" stroke-dasharray=""/><path fill="none" stroke="rgb(0,0,0)" class="dcg-svg-minor-gridline" paint-order="fill stroke markers" d=" M 0 235.5 L 300 235.5" stroke-opacity="0.12" stroke-miterlimit="10" stroke-dasharray=""/><path fill="none" stroke="rgb(0,0,0)" class="dcg-svg-minor-gridline" paint-order="fill stroke markers" d=" M 0 192.5 L 300 192.5" stroke-opacity="0.12" stroke-miterlimit="10" stroke-dasharray=""/><path fill="none" stroke="rgb(0,0,0)" class="dcg-svg-minor-gridline" paint-order="fill stroke markers" d=" M 0 106.5 L 300 106.5" stroke-opacity="0.12" stroke-miterlimit="10" stroke-dasharray=""/><path fill="none" stroke="rgb(0,0,0)" class="dcg-svg-minor-gridline" paint-order="fill stroke markers" d=" M 0 63.5 L 300 63.5" stroke-opacity="0.12" stroke-miterlimit="10" stroke-dasharray=""/><path fill="none" stroke="rgb(0,0,0)" class="dcg-svg-minor-gridline" paint-order="fill stroke markers" d=" M 0 20.5 L 300 20.5" stroke-opacity="0.12" stroke-miterlimit="10" stroke-dasharray=""/><path fill="none" stroke="rgb(0,0,0)" class="dcg-svg-major-gridline" paint-order="fill stroke markers" d=" M -0.5 0 L -0.5 300" stroke-opacity="0.31818181818181823" stroke-miterlimit="10" stroke-dasharray=""/></g></g><g id="axis-25073c3e"><g id="yaxis-25073c3e"><title>Y axis</title><path fill="none" stroke="rgb(0,0,0)" class="dcg-svg-axis-line" paint-order="fill stroke markers" d=" M 149.75 0 L 149.75 300" stroke-opacity="0.9" stroke-miterlimit="10" stroke-width="1.5" stroke-dasharray=""/></g><g id="xaxis-25073c3e"><title>X axis</title><path fill="none" stroke="rgb(0,0,0)" class="dcg-svg-axis-line" paint-order="fill stroke markers" d=" M 0 149.75 L 300 149.75" stroke-opacity="0.9" stroke-miterlimit="10" stroke-width="1.5" stroke-dasharray=""/></g><g><g class="dcg-svg-axis-value"><text fill="none" stroke="#ffffff" font-family="Arial" font-size="14px" font-style="normal" font-weight="normal" text-decoration="normal" x="141.10693359375" y="165.808" text-anchor="middle" stroke-miterlimit="2" stroke-width="3" stroke-dasharray="">0</text><text fill="#000000" stroke="none" font-family="Arial" font-size="14px" font-style="normal" font-weight="normal" text-decoration="normal" x="141.10693359375" y="165.808" text-anchor="middle">0</text></g><g class="dcg-svg-axis-value dcg-svg-offcenter-axis-value"><text fill="none" stroke="#ffffff" font-family="Arial" font-size="14px" font-style="normal" font-weight="normal" text-decoration="normal" x="13.1171875" y="165.808" text-anchor="middle" stroke-miterlimit="2" stroke-width="3" stroke-dasharray="">-10</text><text fill="#000000" stroke="none" font-family="Arial" font-size="14px" font-style="normal" font-weight="normal" text-decoration="normal" x="13.1171875" y="165.808" text-anchor="middle">-10</text></g><g class="dcg-svg-axis-value dcg-svg-offcenter-axis-value"><text fill="none" stroke="#ffffff" font-family="Arial" font-size="14px" font-style="normal" font-weight="normal" text-decoration="normal" x="289.2138671875" y="165.808" text-anchor="middle" stroke-miterlimit="2" stroke-width="3" stroke-dasharray="">10</text><text fill="#000000" stroke="none" font-family="Arial" font-size="14px" font-style="normal" font-weight="normal" text-decoration="normal" x="289.2138671875" y="165.808" text-anchor="middle">10</text></g></g></g></g><g id="expressions-25073c3e"><g id="sketch-25073c3e"><title>Expression 1</title><path fill="#2d70b3" stroke="none" paint-order="stroke fill markers" d="" fill-opacity="0.4"/><g><path fill="none" stroke="#2d70b3" class="dcg-svg-curve" paint-order="fill stroke markers" d=" M 149.5 149.5 L 149.5 149.5 L 149.646484375 147.38240335256583 L 149.939453125 145.8322150167065 L 150.4521484375 144.10116668640723 L 151.1845703125 142.3188803829708 L 152.13671875 140.51579830468836 L 153.455078125 138.49664505011944 L 155.06640625 136.44625757391657 L 156.970703125 134.37733510182653 L 159.16796875 132.29656351071634 L 161.7314453125 130.14975454000015 L 164.734375 127.9046667456289 L 168.1767578125 125.58896731514673 L 172.05859375 123.22131669149744 L 176.453125 120.77552153188321 L 181.43359375 118.23406018769083 L 187 115.6184536410531 L 193.2255859375 112.91395969737215 L 200.1103515625 110.13889640262789 L 207.80078125 107.25407956539064 L 216.296875 104.28050977821218 L 225.5986328125 101.23458811885968 L 235.8525390625 98.08555579079129 L 247.05859375 94.85123456311652 L 259.2900390625 91.52656157223595 L 272.6201171875 88.10795508203702 L 287.1220703125 84.592985588841 L 299.5 81.73690728210616" stroke-linecap="round" stroke-linejoin="round" stroke-miterlimit="10" stroke-width="2.5" stroke-opacity="0.9" stroke-dasharray=""/></g></g><g id="sketch-25073c3e"><title>Expression 2</title><path fill="#388c46" stroke="none" paint-order="stroke fill markers" d="" fill-opacity="0.4"/><g><path fill="none" stroke="#388c46" class="dcg-svg-curve" paint-order="fill stroke markers" d=" M 109.17554855626145 -5.5 L 109.17554855626145 -5.5 L 110.7548828125 6.530085154942128 L 113.171875 23.811174665178612 L 115.515625 39.50592912946428 L 117.7861328125 53.712440763201045 L 119.9833984375 66.52573640005932 L 122.107421875 78.03777749197826 L 124.158203125 88.33746010916576 L 126.1357421875 97.51061494009838 L 128.11328125 105.93888201032368 L 130.017578125 113.3509750366211 L 131.8486328125 119.82659394400463 L 133.6064453125 125.44237327575684 L 135.291015625 130.27188219342915 L 136.90234375 134.38562447684154 L 138.513671875 138.00481850760326 L 140.0517578125 140.99816376822338 L 141.58984375 143.54089791434154 L 143.0546875 145.54361397879467 L 144.373046875 146.9966049194336 L 145.6181640625 148.0648904527937 L 146.7900390625 148.80058206830708 L 147.888671875 149.25272587367468 L 148.9140625 149.46730259486608 L 149.939453125 149.48160770961218 L 150.96484375 149.29564121791296 L 151.990234375 148.90940311976843 L 153.0888671875 148.27333641052246 L 154.1875 147.40736607142858 L 155.359375 146.23025948660717 L 156.677734375 144.59334564208984 L 158.0693359375 142.50633158002583 L 159.5341796875 139.91097504752025 L 161.072265625 136.745968409947 L 162.6103515625 133.13035065787182 L 164.2216796875 128.8592521122524 L 165.90625 123.865234375 L 167.5908203125 118.33068765912739 L 169.3486328125 111.97921671186177 L 171.1796875 104.7372523716518 L 173.083984375 96.52816009521487 L 175.0615234375 87.27223995753698 L 177.1123046875 76.88672665187292 L 179.1630859375 65.7001269204276 L 181.287109375 53.26949310302737 L 183.484375 39.50592912946428 L 185.7548828125 24.31747354779924 L 188.0986328125 7.609099524361795 L 189.82753852345905 -5.5" stroke-linecap="round" stroke-linejoin="round" stroke-miterlimit="10" stroke-width="2.5" stroke-opacity="0.9" stroke-dasharray=""/></g></g></g><g id="labels-25073c3e"/></g></svg>