<svg version="1.1" xmlns="http://www.w3.org/2000/svg" xmlns:xlink="http://www.w3.org/1999/xlink" width="300" height="300"><defs/><g transform="scale(1,1)"><g id="background-725469b9"><rect fill="white" stroke="none" x="0" y="0" width="300" height="300" class="dcg-svg-background"/></g><g id="background-images-725469b9"/><g id="graphpaper-725469b9"><g id="grid-725469b9"><g><path fill="none" stroke="rgb(0,0,0)" class="dcg-svg-minor-gridline" paint-order="fill stroke markers" d=" M -0.5 0 L -0.5 300" stroke-opacity="0.12" stroke-miterlimit="10" stroke-dasharray=""/><path fill="none" stroke="rgb(0,0,0)" class="dcg-svg-minor-gridline" paint-order="fill stroke markers" d=" M 29.5 0 L 29.5 300" stroke-opacity="0.12" stroke-miterlimit="10" stroke-dasharray=""/><path fill="none" stroke="rgb(0,0,0)" class="dcg-svg-minor-gridline" paint-order="fill stroke markers" d=" M 59.5 0 L 59.5 300" stroke-opacity="0.12" stroke-miterlimit="10" stroke-dasharray=""/><path fill="none" stroke="rgb(0,0,0)" class="dcg-svg-minor-gridline" paint-order="fill stroke markers" d=" M 89.5 0 L 89.5 300" stroke-opacity="0.12" stroke-miterlimit="10" stroke-dasharray=""/><path fill="none" stroke="rgb(0,0,0)" class="dcg-svg-minor-gridline" paint-order="fill stroke markers" d=" M 119.5 0 L 119.5 300" stroke-opacity="0.12" stroke-miterlimit="10" stroke-dasharray=""/><path fill="none" stroke="rgb(0,0,0)" class="dcg-svg-minor-gridline" paint-order="fill stroke markers" d=" M 179.5 0 L 179.5 300" stroke-opacity="0.12" stroke-miterlimit="10" stroke-dasharray=""/><path fill="none" stroke="rgb(0,0,0)" class="dcg-svg-minor-gridline" paint-order="fill stroke markers" d=" M 209.5 0 L 209.5 300" stroke-opacity="0.12" stroke-miterlimit="10" stroke-dasharray=""/><path fill="none" stroke="rgb(0,0,0)" class="dcg-svg-minor-gridline" paint-order="fill stroke markers" d=" M 239.5 0 L 239.5 300" stroke-opacity="0.12" stroke-miterlimit="10" stroke-dasharray=""/><path fill="none" stroke="rgb(0,0,0)" class="dcg-svg-minor-gridline" paint-order="fill stroke markers" d=" M 269.5 0 L 269.5 300" stroke-opacity="0.12" stroke-miterlimit="10" stroke-dasharray=""/><path fill="none" stroke="rgb(0,0,0)" class="dcg-svg-minor-gridline" paint-order="fill stroke markers" d=" M 0 278.5 L 300 278.5" stroke-opacity="0.12" stroke-miterlimit="10" stroke-dasharray=""/><path fill="none" stroke="rgb(0,0,0)" class="dcg-svg-minor-gridline" paint-order="fill stroke markers" d=" M 0 235.5 L 300 235.5" stroke-opacity="0.12" stroke-miterlimit="10" stroke-dasharray=""/><path fill="none" stroke="rgb(0,0,0)" class="dcg-svg-minor-gridline" paint-order="fill stroke markers" d=" M 0 192.5 L 300 192.5" stroke-opacity="0.12" stroke-miterlimit="10" stroke-dasharray=""/><path fill="none" stroke="rgb(0,0,0)" class="dcg-svg-minor-gridline" paint-order="fill stroke markers" d=" M 0 106.5 L 300 106.5" stroke-opacity="0.12" stroke-miterlimit="10" stroke-dasharray=""/><path fill="none" stroke="rgb(0,0,0)" class="dcg-svg-minor-gridline" paint-order="fill stroke markers" d=" M 0 63.5 L 300 63.5" stroke-opacity="0.12" stroke-miterlimit="10" stroke-dasharray=""/><path fill="none" stroke="rgb(0,0,0)" class="dcg-svg-minor-gridline" paint-order="fill stroke markers" d=" M 0 20.5 L 300 20.5" stroke-opacity="0.12" stroke-miterlimit="10" stroke-dasharray=""/><path fill="none" stroke="rgb(0,0,0)" class="dcg-svg-major-gridline" paint-order="fill stroke markers" d=" M -0.5 0 L -0.5 300" stroke-opacity="0.31818181818181823" stroke-miterlimit="10" stroke-dasharray=""/></g></g><g id="axis-725469b9"><g id="yaxis-725469b9"><title>Y axis</title><path fill="none" stroke="rgb(0,0,0)" class="dcg-svg-axis-line" paint-order="fill stroke markers" d=" M 149.75 0 L 149.75 300" stroke-opacity="0.9" stroke-miterlimit="10" stroke-width="1.5" stroke-dasharray=""/></g><g id="xaxis-725469b9"><title>X axis</title><path fill="none" stroke="rgb(0,0,0)" class="dcg-svg-axis-line" paint-order="fill stroke markers" d=" M 0 149.75 L 300 149.75" stroke-opacity="0.9" stroke-miterlimit="10" stroke-width="1.5" stroke-dasharray=""/></g><g><g class="dcg-svg-axis-value"><text fill="none" stroke="#ffffff" font-family="Arial" font-size="14px" font-style="normal" font-weight="normal" text-decoration="normal" x="141.10693359375" y="165.808" text-anchor="middle" stroke-miterlimit="2" stroke-width="3" stroke-dasharray="">0</text><text fill="#000000" stroke="none" font-family="Arial" font-size="14px" font-style="normal" font-weight="normal" text-decoration="normal" x="141.10693359375" y="165.808" text-anchor="middle">0</text></g><g class="dcg-svg-axis-value dcg-svg-offcenter-axis-value"><text fill="none" stroke="#ffffff" font-family="Arial" font-size="14px" font-style="normal" font-weight="normal" text-decoration="normal" x="13.1171875" y="165.808" text-anchor="middle" stroke-miterlimit="2" stroke-width="3" stroke-dasharray="">-10</text><text fill="#000000" stroke="none" font-family="Arial" font-size="14px" font-style="normal" font-weight="normal" text-decoration="normal" x="13.1171875" y="165.808" text-anchor="middle">-10</text></g><g class="dcg-svg-axis-value dcg-svg-offcenter-axis-value"><text fill="none" stroke="#ffffff" font-family="Arial" font-size="14px" font-style="normal" font-weight="normal" text-decoration="normal" x="289.2138671875" y="165.808" text-anchor="middle" stroke-miterlimit="2" stroke-width="3" stroke-dasharray="">10</text><text fill="#000000" stroke="none" font-family="Arial" font-size="14px" font-style="normal" font-weight="normal" text-decoration="normal" x="289.2138671875" y="165.808" text-anchor="middle">10</text></g></g></g></g><g id="expressions-725469b9"><g id="sketch-725469b9"><title>Expression 1</title><path fill="#2d70b3" stroke="none" paint-order="stroke fill markers" d="" fill-opacity="0.4"/><g><path fill="none" stroke="#2d70b3" class="dcg-svg-curve" paint-order="fill stroke markers" d=" M 149.5 149.5 L 149.5 149.5 L 149.646484375 147.38240335256583 L 149.939453125 145.8322150167065 L 150.4521484375 144.10116668640723 L 151.1845703125 142.3188803829708 L 152.13671875 140.51579830468836 L 153.455078125 138.49664505011944 L 155.06640625 136.44625757391657 L 156.970703125 134.37733510182653 L 159.16796875 132.29656351071634 L 161.7314453125 130.14975454000015 L 164.734375 127.9046667456289 L 168.1767578125 125.58896731514673 L 172.05859375 123.22131669149744 L 176.453125 120.77552153188321 L 181.43359375 118.23406018769083 L 187 115.6184536410531 L 193.2255859375 112.91395969737215 L 200.1103515625 110.13889640262789 L 207.80078125 107.25407956539064 L 216.296875 104.28050977821218 L 225.5986328125 101.23458811885968 L 235.8525390625 98.08555579079129 L 247.05859375 94.85123456311652 L 259.2900390625 91.52656157223595 L 272.6201171875 88.10795508203702 L 287.1220703125 84.592985588841 L 299.5 81.73690728210616" stroke-linecap="round" stroke-linejoin="round" stroke-miterlimit="10" stroke-width="2.5" stroke-opacity="0.9" stroke-dasharray=""/></g></g><g id="sketch-725469b9"><title>Expression 2</title><path fill="#388c46" stroke="none" paint-order="stroke fill markers" d="" fill-opacity="0.4"/><path fill="#388c46" stroke="none" class="dcg-svg-region" paint-order="stroke fill markers" d=" M -3 303 L -3 -3 L 149.5 -3 L 149.5 303 M 303 -3 L 303 303 L 149.5 303 L 149.5 -3" fill-opacity="0.4"/><g><path fill="none" stroke="#388c46" class="dcg-svg-curve" paint-order="fill stroke markers" d=" M 149.5 -5.5 L 149.5 5.5 M 149.5 12.5 L 149.5 23.5 M 149.5 30.5 L 149.5 41.5 M 149.5 48.5 L 149.5 59.5 M 149.5 66.5 L 149.5 77.5 M 149.5 84.5 L 149.5 95.5 M 149.5 102.5 L 149.5 113.5 M 149.5 120.5 L 149.5 131.5 M 149.5 138.5 L 149.5 149.5 M 149.5 156.5 L 149.5 167.5 M 149.5 174.5 L 149.5 185.5 M 149.5 192.5 L 149.5 203.5 M 149.5 210.5 L 149.5 221.5 M 149.5 228.5 L 149.5 239.5 M 149.5 246.5 L 149.5 257.5 M 149.5 264.5 L 149.5 275.5 M 149.5 282.5 L 149.5 293.5 M 149.5 300.5 L 149.5 305.5" stroke-linecap="round" stroke-linejoin="round" stroke-miterlimit="10" stroke-width="2.5" stroke-opacity="0.9" stroke-dasharray=""/></g><g><path fill="none" stroke="#388c46" class="dcg-svg-curve" paint-order="fill stroke markers" d=" M 149.5 305.5 L 149.5 294.5 M 149.5 287.5 L 149.5 276.5 M 149.5 269.5 L 149.5 258.5 M 149.5 251.5 L 149.5 240.5 M 149.5 233.5 L 149.5 222.5 M 149.5 215.5 L 149.5 204.5 M 149.5 197.5 L 149.5 186.5 M 149.5 179.5 L 149.5 168.5 M 149.5 161.5 L 149.5 150.5 M 149.5 143.5 L 149.5 132.5 M 149.5 125.5 L 149.5 114.5 M 149.5 107.5 L 149.5 96.5 M 149.5 89.5 L 149.5 78.5 M 149.5 71.5 L 149.5 60.5 M 149.5 53.5 L 149.5 42.5 M 149.5 35.5 L 149.5 24.5 M 149.5 17.5 L 149.5 6.5 M 149.5 -0.5 L 149.5 -5.5" stroke-linecap="round" stroke-linejoin="round" stroke-miterlimit="10" stroke-width="2.5" stroke-opacity="0.9" stroke-dasharray=""/></g></g></g><g id="labels-725469b9"/></g></svg>